<?xml version="1.0" standalone="no"?>
<!DOCTYPE svg PUBLIC "-//W3C//DTD SVG 20010904//EN"
 "http://www.w3.org/TR/2001/REC-SVG-20010904/DTD/svg10.dtd">
<svg version="1.0" xmlns="http://www.w3.org/2000/svg"
 width="16.000000pt" height="16.000000pt" viewBox="0 0 16.000000 16.000000"
 preserveAspectRatio="xMidYMid meet">
<metadata>
Created by potrace 1.11, written by Peter Selinger 2001-2013
</metadata>
<g transform="translate(0.000000,16.000000) scale(0.002192,-0.002192)"
fill="#000000" stroke="none">
<path d="M3458 7295 c-2 -2 -43 -6 -93 -9 -121 -9 -214 -20 -275 -32 -14 -2
-39 -6 -57 -8 -18 -3 -40 -7 -50 -10 -10 -3 -34 -7 -54 -10 -61 -9 -302 -73
-411 -109 -162 -54 -280 -103 -453 -187 -583 -282 -1062 -701 -1436 -1253 -43
-64 -79 -119 -79 -121 0 -2 -18 -34 -41 -72 -166 -273 -330 -690 -405 -1029
-18 -81 -54 -292 -59 -345 -4 -36 -8 -76 -11 -90 -22 -140 -22 -624 1 -750 2
-14 7 -51 10 -83 16 -171 92 -498 164 -710 149 -438 384 -851 679 -1196 84
-97 317 -332 389 -391 30 -25 62 -52 71 -60 84 -75 301 -227 456 -319 97 -58
338 -181 411 -211 11 -4 40 -17 65 -28 148 -64 457 -158 655 -198 37 -7 269
-43 315 -49 213 -24 666 -25 811 0 13 2 58 8 99 14 176 24 294 48 467 97 414
115 788 293 1143 544 195 138 471 388 614 555 14 17 37 44 51 60 385 440 696
1096 800 1685 8 47 17 96 20 110 2 14 6 45 9 70 3 25 9 72 13 105 10 77 10
690 1 772 -28 233 -101 592 -138 678 -5 11 -19 52 -31 90 -98 311 -280 670
-483 955 -412 578 -982 1027 -1631 1283 -126 50 -338 121 -390 131 -11 2 -47
11 -80 19 -33 9 -71 18 -85 21 -14 2 -56 11 -95 19 -38 8 -88 17 -110 20 -22
3 -76 10 -120 16 -44 6 -107 13 -140 17 -59 6 -512 14 -517 9z"/>
</g>
</svg>
