<?xml version="1.0" encoding="utf-8"?>
<!-- Generator: Adobe Illustrator 19.1.1, SVG Export Plug-In . SVG Version: 6.00 Build 0)  -->
<svg version="1.1" id="Calque_1" xmlns="http://www.w3.org/2000/svg" xmlns:xlink="http://www.w3.org/1999/xlink" x="0px" y="0px"
	 viewBox="0 0 140 60" style="enable-background:new 0 0 140 60;" xml:space="preserve">
<style type="text/css">
	.st0{fill:#111532;}
</style>
<g>
	<g>
		<path class="st0" d="M76.5,8.3c-0.6-1-1.2-0.9-1.7-0.9h-7.3c-0.6,0-0.9-0.1-0.5,0.7c0.2,0.5,1.3,2.5,1.3,2.5
			c0.2,0.5,0.1,0.5-0.1,0.9c-0.2,0.3-12.7,21.3-13.8,23c-0.9,1.4-1.1,1.7,0.2,1.7h1.7c0.8,0,0.9,0,1.8-1.5c0.5-0.8,4.2-6.8,4.2-6.8
			h14.5c0.4,0,0.6,0.3,0.7,0.5c0.9,1.7,2.3,4.3,3.2,6.1c0.6,1.1,1,1.7,1.8,1.7h7.3c1.4,0,1.3,0,0.3-1.9
			C88.7,31.7,78.4,11.9,76.5,8.3 M63.7,24.9l5.9-10.1c0.5-1,0.5-0.8,0.9,0c0.2,0.4,5.3,10,5.3,10L63.7,24.9z"/>
		<path class="st0" d="M33.8,7.4h-5.2c-4,3.1-4.1,3.1-18.6,14.1V8.1c0-0.4-0.4-0.8-0.8-0.8H1.8C1.4,7.4,1,7.7,1,8.1v27.1
			c0,0.4,0.4,0.8,0.8,0.8h7.5c0.4,0,0.8-0.4,0.8-0.8V23.6c2.2,2.2,14.1,12.5,14.1,12.5H34c0.7,0,0.7-0.4,0.1-0.9
			c-8.8-7.5-13.6-11.6-15.4-13.2c-0.8-0.7-1.3-0.9-0.6-1.5c0.9-0.7,15.5-12.1,15.8-12.5C34.3,7.5,33.8,7.4,33.8,7.4"/>
		<path class="st0" d="M47.7,7.4h-7.4c-0.5,0-0.8,0.4-0.8,0.8v27.1c0,0.4,0.4,0.8,0.8,0.8h7.4c0.5,0,0.8-0.4,0.8-0.8V8.1
			C48.6,7.7,48.2,7.4,47.7,7.4"/>
		<path class="st0" d="M138.4,7.4H131c-0.5,0-0.8,0.4-0.8,0.8v27.1c0,0.4,0.4,0.8,0.8,0.8h7.4c0.5,0,0.8-0.4,0.8-0.8V8.1
			C139.3,7.7,138.9,7.4,138.4,7.4"/>
		<path class="st0" d="M117.5,20.8c1.3-0.6,6.5-1,6.5-6.7c0-6.6-7.2-6.6-8.9-6.7L97,7.3c-0.4,0-0.8,0.4-0.8,0.8v27.2
			c0,0.4,0.4,0.8,0.8,0.8l16.2,0c2.6,0,11.7-0.9,12-7.7C125.4,22.3,118.8,21.3,117.5,20.8 M106,19.6v-8.7v-0.5h3.1h0.5v0
			c3.6,0,5.2,2.3,5.2,4.8s-1.9,4.9-5.2,4.8v0h-0.5H106V19.6z M110.2,33.9L110.2,33.9l-0.6,0H106v-0.6V23.2v-0.6h3.6h0.6v0
			c4.3,0,6.2,2.7,6.2,5.6C116.4,31.2,114.1,33.9,110.2,33.9"/>
	</g>
	<g>
		<path class="st0" d="M1.1,40h1v10.5h-1V40z"/>
		<path class="st0" d="M11.8,50.5h-1v-1.4h0c-0.8,1.3-2.2,1.5-3,1.5c-2.4,0-4.2-1.8-4.2-4.1c0-2.1,1.6-4,4.2-4c0.8,0,2.2,0.3,3,1.6
			h0v-1.4h1V50.5z M7.7,49.8c1.7,0,3.1-1.3,3.1-3.1c0-1.7-1.3-3.2-3.1-3.2c-1.7,0-3.2,1.2-3.2,3.2C4.6,48.4,5.8,49.8,7.7,49.8z"/>
		<path class="st0" d="M18.5,43.6c0.4-0.7,1.2-1.1,2.1-1.1c1.1,0,2.1,0.5,2.6,1.5c0.6-1,1.5-1.5,2.6-1.5c1.8,0,3.1,1.3,3.1,3.3v4.6
			h-1V46c0-1.7-0.8-2.6-2.1-2.6c-1.3,0-2.1,0.9-2.1,2.6v4.5h-1V46c0-1.7-0.8-2.6-2.1-2.6c-1.3,0-2.1,0.9-2.1,2.6v4.5h-1v-7.7h1V43.6
			z"/>
		<path class="st0" d="M34.4,42.6c2.3,0,4.1,1.9,4.1,4.1c0,2.1-1.7,4.1-4.1,4.1c-2.3,0-4-1.9-4-4C30.4,44.2,32.4,42.6,34.4,42.6z
			 M34.4,49.8c1.5,0,3.1-1.2,3.1-3.2c0-2-1.7-3.1-3.1-3.1c-1.4,0-3.1,1.2-3.1,3.2C31.4,48.4,32.8,49.8,34.4,49.8z"/>
		<path class="st0" d="M47.8,50.5h-1v-1.4h0c-0.8,1.2-2.2,1.5-3,1.5c-2.4,0-4.2-1.8-4.2-4.1c0-2.1,1.6-4,4.2-4c0.8,0,2.2,0.3,3,1.5
			h0V40h1V50.5z M43.7,49.8c1.7,0,3.1-1.3,3.1-3.1c0-1.7-1.3-3.2-3.1-3.2c-1.7,0-3.2,1.2-3.2,3.2C40.6,48.4,41.8,49.8,43.7,49.8z"/>
		<path class="st0" d="M50.3,47c0.1,1.5,1.5,2.8,3,2.8c1.4,0,2.4-0.9,2.8-1.8h1c-0.5,1.5-2,2.7-3.8,2.7c-2.2,0-4-1.8-4-4
			c0-2.2,1.8-4,4-4.1c1.7,0,2.9,1,3.4,2c0.5,0.7,0.6,1.5,0.6,2.2c0,0.1,0,0.2,0,0.3H50.3z M56.3,46.1c-0.3-1.8-1.8-2.6-3-2.6
			c-1.2,0-2.7,0.8-3,2.6H56.3z"/>
		<path class="st0" d="M70.6,50.5h-1v-1.4h0c-0.8,1.3-2.2,1.5-3,1.5c-2.4,0-4.2-1.8-4.2-4.1c0-2.1,1.6-4,4.2-4c0.8,0,2.2,0.3,3,1.6
			h0v-1.4h1V50.5z M66.5,49.8c1.7,0,3.1-1.3,3.1-3.1c0-1.7-1.3-3.2-3.1-3.2c-1.7,0-3.2,1.2-3.2,3.2C63.4,48.4,64.6,49.8,66.5,49.8z
			 M68.2,40.9l-0.5,0.8l-2.8-1.5l0.5-0.8L68.2,40.9z"/>
		<path class="st0" d="M76.2,42.7h1v1.4h0c0.9-1.3,2.2-1.6,3-1.6c2.5,0,4.2,2,4.2,4c0,2.2-1.7,4.1-4.2,4.1c-0.8,0-2.1-0.3-3-1.5h0
			v4.1h-1V42.7z M80.3,43.4c-1.8,0-3.1,1.5-3.1,3.2c0,1.8,1.4,3.1,3.1,3.1c1.9,0,3.2-1.4,3.2-3.1C83.4,44.7,82,43.4,80.3,43.4z"/>
		<path class="st0" d="M86.5,47c0.1,1.5,1.5,2.8,3,2.8c1.4,0,2.4-0.9,2.8-1.8h1c-0.5,1.5-2,2.7-3.8,2.7c-2.2,0-4-1.8-4-4
			c0-2.2,1.8-4,4-4.1c1.7,0,2.9,1,3.4,2c0.5,0.7,0.6,1.5,0.6,2.2c0,0.1,0,0.2,0,0.3H86.5z M92.6,46.1c-0.3-1.8-1.8-2.6-3-2.6
			c-1.2,0-2.7,0.8-3,2.6H92.6z"/>
		<path class="st0" d="M96,43.6h-1.6v-0.9H96V40h1v2.7h1.8v0.9H97v6.8h-1V43.6z"/>
		<path class="st0" d="M99.9,40h1v1.8h-1V40z M99.9,42.7h1v7.7h-1V42.7z"/>
		<path class="st0" d="M103.6,43.6H102v-0.9h1.6V40h1v2.7h1.9v0.9h-1.9v6.8h-1V43.6z"/>
		<path class="st0" d="M107.9,48.2c0,1.5,1,1.6,1.4,1.6c0.9,0,1.4-0.6,1.4-1.4c0-1.1-1-1.3-1.5-1.5c-0.8-0.3-2-0.7-2-2.1
			c0-1.1,0.8-2.1,2.2-2.1c1.1,0,2.1,0.9,2.1,2.1v0h-1c-0.1-0.9-0.7-1.2-1.2-1.2c-0.8,0-1.2,0.6-1.2,1.2c0,0.8,0.8,1.1,1.4,1.3
			c0.9,0.3,2.2,0.8,2.2,2.4v0c0,1.3-0.8,2.4-2.4,2.4c-1.1,0-2.4-0.7-2.4-2.4v-0.1H107.9z"/>
		<path class="st0" d="M116.8,42.7h1v1.4h0c0.9-1.3,2.2-1.6,3-1.6c2.5,0,4.2,2,4.2,4c0,2.2-1.7,4.1-4.2,4.1c-0.8,0-2.1-0.3-3-1.5h0
			v4.1h-1V42.7z M120.9,43.4c-1.8,0-3.1,1.5-3.1,3.2c0,1.8,1.4,3.1,3.1,3.1c1.9,0,3.2-1.4,3.2-3.1C124,44.7,122.6,43.4,120.9,43.4z"
			/>
		<path class="st0" d="M126.5,42.7h1v1.1h0c0.5-1.1,1.3-1.3,2.2-1.3v1c-0.7,0.1-1.3,0.3-1.7,0.8c-0.3,0.4-0.5,1-0.5,1.6v4.5h-1V42.7
			z"/>
		<path class="st0" d="M130.7,40h1v1.8h-1V40z M130.7,42.7h1v7.7h-1V42.7z"/>
		<path class="st0" d="M135.5,46.5l-2.6-3.8h1.2l2,3l2-3h1.2l-2.6,3.8l2.6,3.9h-1.2l-2-3.1l-2,3.1h-1.2L135.5,46.5z"/>
	</g>
</g>
</svg>
