<svg width="165" height="33" viewBox="0 0 165 33" fill="none" xmlns="http://www.w3.org/2000/svg">
<path d="M76.3515 25.6062C77.8954 25.6795 81.5661 23.4697 83.3367 21.3437C85.0965 19.2282 86.1978 14.9762 85.4528 12.0752C85.1505 10.9127 80.4325 7.85466 76.6538 7.85466C72.0546 7.85466 68.6646 10.2739 67.3042 11.96C66.8076 12.5884 66.7428 16.9346 68.6322 20.2336C70.759 23.941 75.0668 25.5433 76.3515 25.6062Z" fill="#4BBD7A"/>
<path d="M79.029 27.418C71.5147 27.418 65.3932 21.4798 65.3932 14.1907C65.3932 6.90162 71.5147 0.963503 79.029 0.963503C86.5432 0.963503 92.6647 6.90162 92.6647 14.1907C92.6647 21.4798 86.554 27.418 79.029 27.418ZM79.029 1.22532C71.6551 1.22532 65.6631 7.03777 65.6631 14.1907C65.6631 21.3437 71.6551 27.1561 79.029 27.1561C86.4028 27.1561 92.3948 21.3437 92.3948 14.1907C92.3948 7.03777 86.4028 1.22532 79.029 1.22532Z" fill="#004953"/>
<path d="M73.4257 27.418C65.9115 27.418 59.7899 21.4798 59.7899 14.1907C59.7899 6.90162 65.9007 0.963503 73.4257 0.963503C80.9507 0.963503 87.0614 6.90162 87.0614 14.1907C87.0614 21.4798 80.9399 27.418 73.4257 27.418ZM73.4257 1.22532C66.0518 1.22532 60.0599 7.03777 60.0599 14.1907C60.0599 21.3437 66.0518 27.1561 73.4257 27.1561C80.7996 27.1561 86.7915 21.3437 86.7915 14.1907C86.7915 7.03777 80.7996 1.22532 73.4257 1.22532Z" fill="#004953"/>
<path d="M76.2436 33C68.7293 33 62.6078 27.0619 62.6078 19.7728C62.6078 12.4837 68.7185 6.54554 76.2436 6.54554C83.7686 6.54554 89.8793 12.4837 89.8793 19.7728C89.8793 27.0619 83.7578 33 76.2436 33ZM76.2436 6.80736C68.8697 6.80736 62.8777 12.6198 62.8777 19.7728C62.8777 26.9257 68.8697 32.7382 76.2436 32.7382C83.6174 32.7382 89.6094 26.9257 89.6094 19.7728C89.6094 12.6303 83.6174 6.80736 76.2436 6.80736Z" fill="#004953"/>
<path d="M76.3407 2.64964C77.0204 2.64964 77.5714 2.11511 77.5714 1.45573C77.5714 0.796356 77.0204 0.261826 76.3407 0.261826C75.6609 0.261826 75.1099 0.796356 75.1099 1.45573C75.1099 2.11511 75.6609 2.64964 76.3407 2.64964Z" fill="white"/>
<path d="M76.3407 2.92193C75.5094 2.92193 74.84 2.27261 74.84 1.4662C74.84 0.659791 75.5202 0 76.3407 0C77.1612 0 77.8414 0.649318 77.8414 1.45573C77.8414 2.26214 77.172 2.92193 76.3407 2.92193ZM76.3407 0.523643C75.8117 0.523643 75.3798 0.942558 75.3798 1.45573C75.3798 1.9689 75.8117 2.38781 76.3407 2.38781C76.8697 2.38781 77.3016 1.9689 77.3016 1.45573C77.3016 0.942558 76.8805 0.523643 76.3407 0.523643Z" fill="#004953"/>
<path d="M89.5662 23.6792C90.246 23.6792 90.797 23.1446 90.797 22.4852C90.797 21.8259 90.246 21.2913 89.5662 21.2913C88.8865 21.2913 88.3354 21.8259 88.3354 22.4852C88.3354 23.1446 88.8865 23.6792 89.5662 23.6792Z" fill="white"/>
<path d="M89.5662 23.9514C88.7349 23.9514 88.0655 23.2917 88.0655 22.4957C88.0655 21.6998 88.7457 21.04 89.5662 21.04C90.3867 21.04 91.0669 21.6998 91.0669 22.4957C91.0669 23.2917 90.3975 23.9514 89.5662 23.9514ZM89.5662 21.5532C89.0372 21.5532 88.6053 21.9721 88.6053 22.4852C88.6053 22.9984 89.0372 23.4173 89.5662 23.4173C90.0952 23.4173 90.5271 22.9984 90.5271 22.4852C90.5271 21.9721 90.106 21.5532 89.5662 21.5532Z" fill="#004953"/>
<path d="M63.0505 23.6792C63.7303 23.6792 64.2813 23.1446 64.2813 22.4852C64.2813 21.8259 63.7303 21.2913 63.0505 21.2913C62.3708 21.2913 61.8197 21.8259 61.8197 22.4852C61.8197 23.1446 62.3708 23.6792 63.0505 23.6792Z" fill="white"/>
<path d="M63.0505 23.9514C62.2191 23.9514 61.5498 23.2917 61.5498 22.4957C61.5498 21.6998 62.2299 21.04 63.0505 21.04C63.871 21.04 64.5512 21.6998 64.5512 22.4957C64.5512 23.2917 63.871 23.9514 63.0505 23.9514ZM63.0505 21.5532C62.5214 21.5532 62.0896 21.9721 62.0896 22.4852C62.0896 22.9984 62.5214 23.4173 63.0505 23.4173C63.5795 23.4173 64.0113 22.9984 64.0113 22.4852C64.0113 21.9721 63.5795 21.5532 63.0505 21.5532Z" fill="#004953"/>
<path d="M0 2.49252H2.72067V28.947H0V2.49252Z" fill="#004953"/>
<path d="M6.26188 5.08979V2.49252H21.204V5.07932H15.1256V28.947H12.3402V5.08979H6.26188Z" fill="#004953"/>
<path d="M28.2539 11.7087L26.8288 10.9127C27.2931 10.0016 27.617 9.28942 27.7789 8.77625C27.9409 8.26308 28.0596 7.59282 28.1352 6.77593H26.5049V1.83274H29.8626V4.92224C29.8626 6.47222 29.7546 7.68707 29.5387 8.56679C29.312 9.44651 28.8909 10.4938 28.2539 11.7087Z" fill="#004953"/>
<path d="M48.1839 11.5202L46.5213 13.1958C45.1286 11.8867 43.779 11.2374 42.4511 11.2374C41.609 11.2374 40.8856 11.5097 40.281 12.0438C39.6764 12.5779 39.3741 13.2168 39.3741 13.9289C39.3741 14.5678 39.6225 15.1647 40.1191 15.7407C40.6157 16.3272 41.6522 17.0184 43.2392 17.8144C45.1718 18.7883 46.4889 19.7204 47.1799 20.6211C47.86 21.5322 48.2055 22.5586 48.2055 23.7001C48.2055 25.3025 47.6225 26.6639 46.4565 27.7845C45.2905 28.8946 43.833 29.4602 42.0948 29.4602C40.9288 29.4602 39.8168 29.2088 38.7588 28.7271C37.7007 28.2349 36.8262 27.5541 36.1353 26.6953L37.7655 24.894C39.0934 26.3497 40.497 27.0724 41.9869 27.0724C43.0233 27.0724 43.9086 26.7477 44.6427 26.0984C45.3769 25.4491 45.744 24.6846 45.744 23.8153C45.744 23.0927 45.5065 22.4538 45.0206 21.8883C44.5348 21.3332 43.4444 20.642 41.7493 19.8042C39.9248 18.8931 38.694 17.9924 38.0354 17.1022C37.3768 16.212 37.0529 15.2066 37.0529 14.0651C37.0529 12.5779 37.5712 11.3421 38.6184 10.3577C39.6656 9.37323 40.9828 8.881 42.5807 8.881C44.4376 8.881 46.3054 9.76072 48.1839 11.5202Z" fill="#004953"/>
<path d="M96.303 9.3837H98.8942V12.8921C99.9306 11.5516 101.086 10.5462 102.338 9.87592C103.601 9.20566 104.972 8.881 106.452 8.881C107.963 8.881 109.302 9.24755 110.468 9.99112C111.634 10.7347 112.498 11.7401 113.059 12.9968C113.62 14.2536 113.89 16.212 113.89 18.8826V28.9575H111.299V19.6262C111.299 17.3745 111.202 15.8664 111.008 15.1124C110.705 13.8137 110.133 12.8397 109.28 12.1904C108.427 11.5411 107.315 11.206 105.944 11.206C104.379 11.206 102.964 11.7087 101.723 12.7141C100.481 13.7195 99.6607 14.9657 99.2612 16.4529C99.0129 17.4269 98.8942 19.1968 98.8942 21.7731V28.947H96.303V9.3837Z" fill="#004953"/>
<path d="M130.495 2.49252H133.216V18.4636C133.216 20.3592 133.248 21.5427 133.324 22.0035C133.453 23.0508 133.777 23.92 134.274 24.6217C134.77 25.3234 135.526 25.9098 136.552 26.3811C137.577 26.8524 138.614 27.0933 139.65 27.0933C140.557 27.0933 141.421 26.9048 142.241 26.5382C143.073 26.1717 143.764 25.648 144.314 24.9882C144.876 24.3284 145.275 23.5325 145.534 22.6004C145.718 21.9302 145.815 20.5477 145.815 18.4636V2.49252H148.536V18.4636C148.536 20.8305 148.298 22.7366 147.823 24.1923C147.348 25.648 146.398 26.9152 144.973 27.9939C143.548 29.0727 141.82 29.6068 139.791 29.6068C137.588 29.6068 135.71 29.0936 134.133 28.0777C132.568 27.0619 131.51 25.7109 130.981 24.0352C130.646 23.0089 130.484 21.1447 130.484 18.4636L130.495 2.49252Z" fill="#004953"/>
<path d="M164.978 11.5202L163.305 13.1958C161.912 11.8867 160.563 11.2374 159.235 11.2374C158.393 11.2374 157.669 11.5097 157.065 12.0438C156.46 12.5779 156.169 13.2168 156.169 13.9289C156.169 14.5678 156.417 15.1647 156.914 15.7407C157.41 16.3272 158.447 17.0184 160.034 17.8144C161.966 18.7883 163.283 19.7204 163.974 20.6211C164.655 21.5322 165 22.5586 165 23.7001C165 25.3025 164.417 26.6639 163.251 27.7845C162.085 28.8946 160.628 29.4602 158.889 29.4602C157.723 29.4602 156.611 29.2088 155.553 28.7271C154.495 28.2453 153.621 27.5541 152.93 26.6953L154.56 24.894C155.888 26.3497 157.291 27.0724 158.781 27.0724C159.818 27.0724 160.714 26.7477 161.437 26.0984C162.161 25.4491 162.538 24.6846 162.538 23.8153C162.538 23.0927 162.301 22.4538 161.815 21.8883C161.329 21.3332 160.239 20.642 158.544 19.8042C156.719 18.8931 155.488 17.9924 154.83 17.1022C154.171 16.212 153.847 15.2066 153.847 14.0651C153.847 12.5779 154.366 11.3421 155.413 10.3577C156.46 9.37323 157.777 8.881 159.375 8.881C161.232 8.881 163.1 9.76072 164.978 11.5202Z" fill="#004953"/>
</svg>
